<?xml version="1.0" standalone="no"?><!DOCTYPE svg PUBLIC "-//W3C//DTD SVG 1.1//EN" "http://www.w3.org/Graphics/SVG/1.1/DTD/svg11.dtd"><svg t="1621914129966" class="icon" viewBox="0 0 1024 1024" version="1.1" xmlns="http://www.w3.org/2000/svg" p-id="4860" xmlns:xlink="http://www.w3.org/1999/xlink" width="200" height="200"><defs><style type="text/css">@font-face { font-family: element-icons; src: url("chrome-extension://moombeodfomdpjnpocobemoiaemednkg/fonts/element-icons.woff") format("woff"), url("chrome-extension://moombeodfomdpjnpocobemoiaemednkg/fonts/element-icons.ttf ") format("truetype"); }
</style></defs><path d="M678.187902 565.814145a305.723939 305.723939 0 0 0 139.825731-263.732076C814.564893 142.915802 687.540886 11.560178 528.540159 3.200431a306.055018 306.055018 0 0 0-182.617702 562.834434 25.465499 25.465499 0 0 1-4.248848 44.943985 447.867223 447.867223 0 0 0-270.132938 335.659005 64.008622 64.008622 0 0 0 63.456823 74.492793h754.142961a64.008622 64.008622 0 0 0 63.456824-74.492793 447.867223 447.867223 0 0 0-270.270888-335.796955 25.520679 25.520679 0 0 1-4.138489-45.026755z" p-id="4861"></path></svg>