<?xml version="1.0" standalone="no"?><!DOCTYPE svg PUBLIC "-//W3C//DTD SVG 1.1//EN" "http://www.w3.org/Graphics/SVG/1.1/DTD/svg11.dtd"><svg t="1630293996379" class="icon" viewBox="0 0 1024 1024" version="1.1" xmlns="http://www.w3.org/2000/svg" p-id="1059" xmlns:xlink="http://www.w3.org/1999/xlink" width="200" height="200"><defs><style type="text/css"></style></defs><path d="M509.44 267.52C504.32 262.4 498.56 259.84 492.8 258.56 488.96 256.64 484.48 256 480 256S471.04 256.64 467.2 258.56C461.44 259.84 455.68 262.4 450.56 267.52l-313.6 313.6c-14.08 14.08-14.08 35.84 0 49.92 14.08 14.08 35.84 14.08 49.92 0L448 369.92l0 558.08C448 945.92 462.08 960 480 960S512 945.92 512 928L512 369.92l261.12 261.12c14.08 14.08 35.84 14.08 49.92 0 14.08-14.08 14.08-35.84 0-49.92L509.44 267.52zM864 128l-768 0C78.08 128 64 142.08 64 160 64 177.92 78.08 192 96 192l768 0C881.92 192 896 177.92 896 160 896 142.08 881.92 128 864 128z" p-id="1060"></path></svg>