<?xml version="1.0" standalone="no"?><!DOCTYPE svg PUBLIC "-//W3C//DTD SVG 1.1//EN" "http://www.w3.org/Graphics/SVG/1.1/DTD/svg11.dtd"><svg t="1620270733143" class="icon" viewBox="0 0 1024 1024" version="1.1" xmlns="http://www.w3.org/2000/svg" p-id="2660" xmlns:xlink="http://www.w3.org/1999/xlink" width="200" height="200"><defs><style type="text/css">@font-face { font-family: element-icons; src: url("chrome-extension://moombeodfomdpjnpocobemoiaemednkg/fonts/element-icons.woff") format("woff"), url("chrome-extension://moombeodfomdpjnpocobemoiaemednkg/fonts/element-icons.ttf ") format("truetype"); }
</style></defs><path d="M512 0a512 512 0 1 0 512 512A512.673684 512.673684 0 0 0 512 0z m0 956.631579a444.631579 444.631579 0 1 1 444.631579-444.631579 445.080702 445.080702 0 0 1-444.631579 444.631579z" p-id="2661"></path><path d="M535.803509 218.722807a31.887719 31.887719 0 0 0-5.389474-3.592982 34.357895 34.357895 0 0 0-5.614035-3.817544 33.010526 33.010526 0 0 0-6.287719-1.347369 33.908772 33.908772 0 0 0-6.28772-1.122807 34.133333 34.133333 0 0 0-5.838596 0 33.010526 33.010526 0 0 0-6.961404 1.347369 35.031579 35.031579 0 0 0-4.715789 3.143859 32.112281 32.112281 0 0 0-6.287719 4.266667l-260.491228 258.245614a33.684211 33.684211 0 1 0 47.382456 47.831579l202.105263-202.105263V797.192982a33.684211 33.684211 0 0 0 67.368421 0V323.817544l200.757895 200.757895a33.684211 33.684211 0 0 0 47.607017-47.607018z" p-id="2662"></path></svg>
