<?xml version="1.0" standalone="no"?><!DOCTYPE svg PUBLIC "-//W3C//DTD SVG 1.1//EN" "http://www.w3.org/Graphics/SVG/1.1/DTD/svg11.dtd"><svg t="1622006809611" class="icon" viewBox="0 0 1024 1024" version="1.1" xmlns="http://www.w3.org/2000/svg" p-id="13201" xmlns:xlink="http://www.w3.org/1999/xlink" width="200" height="200"><defs><style type="text/css">@font-face { font-family: element-icons; src: url("chrome-extension://moombeodfomdpjnpocobemoiaemednkg/fonts/element-icons.woff") format("woff"), url("chrome-extension://moombeodfomdpjnpocobemoiaemednkg/fonts/element-icons.ttf ") format("truetype"); }
</style></defs><path d="M929.2 126H94.8C43.4 126 2 167.4 2 218.8v586.4C2 856.6 43.4 898 94.8 898h834.4c51.4 0 92.8-41.4 92.8-92.8V218.8c0-51.4-41.4-92.8-92.8-92.8z m0 63.6c4.7 0 9.3 1.2 12.8 2.9L512 503 81.9 193.1c4.1-2.3 8.8-2.9 12.8-2.9l834.5-0.6z m0 644.2H94.8c-15.8 0-28.6-12.8-28.6-28.6v-545l446.4 321.5L959 260.2v545c-0.6 15.8-14 28.6-29.8 28.6z" p-id="13202"></path></svg>