<?xml version="1.0" standalone="no"?><!DOCTYPE svg PUBLIC "-//W3C//DTD SVG 1.1//EN" "http://www.w3.org/Graphics/SVG/1.1/DTD/svg11.dtd"><svg t="1623806175779" class="icon" viewBox="0 0 1024 1024" version="1.1" xmlns="http://www.w3.org/2000/svg" p-id="4955" xmlns:xlink="http://www.w3.org/1999/xlink" width="200" height="200"><defs><style type="text/css">@font-face { font-family: element-icons; src: url("chrome-extension://moombeodfomdpjnpocobemoiaemednkg/fonts/element-icons.woff") format("woff"), url("chrome-extension://moombeodfomdpjnpocobemoiaemednkg/fonts/element-icons.ttf ") format("truetype"); }
</style></defs><path d="M896.34715904 982.06783807H226.11527554V68.12402267h670.22447667v913.9438154z m-636.37662566-33.85525785h602.52877465V101.97927914H259.97053338v846.23330108z" p-id="4956"></path><path d="M664.47086538 196.74585458c0 7.48059746-6.05854267 13.53914013-13.53914012 13.53914151H359.8253954a13.54654697 13.54654697 0 0 1 0-27.07828164h291.10632986c7.48059746 0 13.53914013 6.07335633 13.53914012 13.53914013zM776.1761793 298.29681444c0 7.48059746-8.18421731 13.53914013-18.30154 13.53914012H364.58038982c-10.102509 0-18.29413317-6.05854267-18.29413455-13.53914012 0-7.48059746 8.19162415-13.53914013 18.29413455-13.53914013h393.3016563c10.10991583 0 18.29413317 6.0659495 18.29413318 13.53914013zM776.1761793 410.00212836c0 7.48059746-8.18421731 13.53914013-18.30154 13.53914012H364.58038982c-10.102509 0-18.29413317-6.05854267-18.29413455-13.53914012 0-7.48059746 8.19162415-13.53914013 18.29413455-13.53914013h393.3016563c10.10991583 0 18.29413317 6.0659495 18.29413318 13.53914013zM776.1761793 521.70744228c0 7.48059746-8.18421731 13.53914013-18.30154 13.53914012H364.58038982c-10.102509 0-18.29413317-6.05854267-18.29413455-13.53914012 0-7.48059746 8.19162415-13.53914013 18.29413455-13.53914014h393.3016563c10.10991583 0 18.29413317 6.0659495 18.29413318 13.53914014zM776.1761793 633.42016164c0 7.47319062-8.18421731 13.53914013-18.30154 13.53914151H364.58038982c-10.102509 0-18.29413317-6.0659495-18.29413455-13.53914151 0-7.48059746 8.19162415-13.53914013 18.29413455-13.53914014h393.3016563c10.10991583-0.00740683 18.29413317 6.05854267 18.29413318 13.53914014zM776.1761793 745.1180701c0 7.48059746-8.18421731 13.53914013-18.30154 13.53914013H364.58038982c-10.102509 0-18.29413317-6.05854267-18.29413455-13.53914013 0-7.47319062 8.19162415-13.53914013 18.29413455-13.53914012h393.3016563c10.10991583-0.00740683 18.29413317 6.0659495 18.29413318 13.53914012zM776.1761793 856.82338402c0 7.48059746-8.18421731 13.53914013-18.30154 13.53914013H364.58038982c-10.102509 0-18.29413317-6.05854267-18.29413455-13.53914013 0-7.48059746 8.19162415-13.53914013 18.29413455-13.53914012h393.3016563c10.10991583-0.00740683 18.29413317 6.05854267 18.29413318 13.53914012zM745.71311436 196.74585458a16.91651936 16.91651936 0 1 1-33.84785102 0 16.93133165 16.93133165 0 0 1 33.84785102 0z" p-id="4957"></path><path d="M111.30662543 405.66930669c0 19.21994966-13.13178105 34.7958866-29.32986687 34.79588661-16.20549127 0-29.33727232-15.5833424-29.33727232-34.79588661V278.9287337c0-19.21994966 13.13178105-34.7958866 29.33727232-34.79588798 16.20549127 0 29.32986688 15.5833424 29.32986687 34.79588798v126.74057299z"  p-id="4958"></path><path d="M89.02777644 880.3020898a24.33045674 14.82047066 90 1 0 29.64094131 0 24.33045674 14.82047066 90 1 0-29.64094131 0Z" p-id="4959"></path><path d="M104.51483557 889.96020696a30.89264452 14.82047066 90 1 0 29.64093993 0 30.89264452 14.82047066 90 1 0-29.64093993 0Z" p-id="4960"></path><path d="M196.63727895 199.38258119c0-33.0035055-26.19690337-59.84477825-58.38569069-59.84477826-32.19619417 0-58.3856907 26.84127135-58.38569069 59.84477826v668.66910447c0 3.03667748 0.29626078 5.99188397 0.71843353 8.90265221h-0.56289701l0.76287313 1.34798788a60.15585268 60.15585268 0 0 0 20.54571979 36.0698103l36.92156125 64.81456106 35.70688944-62.68147958c2.0071695-1.21467183 3.84399021-3.26628093 5.39936241-6.00669763a60.14103903 60.14103903 0 0 0 16.36102919-32.20360097l0.77027858-1.34798789h-0.57030245c0.42957821-2.91817372 0.71843353-5.86597338 0.71843352-8.90265222v-668.66169763zM113.71374721 316.90942888h49.07568074v455.27951465H113.71374721v-455.27951465z m24.53784105-143.52377495c13.5317333 0 24.53783968 11.65788121 24.53783969 25.99692726v90.44856742H113.71374721V199.38258119c0-14.33904603 11.01351322-25.99692724 24.53784105-25.99692726z m-24.53784105 694.66603173v-68.78446188h49.07568074v60.40026842a23.45648668 23.45648668 0 0 0-3.56994855 5.63636993c-2.2441798-2.86632729-4.880905-4.53279779-7.70279269-4.53279642-3.99952674 0-7.6213217 3.31071914-10.28767284 8.68045423-1.85903981-1.74794149-3.91805574-2.75523036-6.09557545-2.75522897-4.37725989 0-8.30272246 3.97730763-11.01351321 10.26545237h-8.89524541a27.20419222 27.20419222 0 0 1-1.51093259-8.91005768z" p-id="4961"></path></svg>
