<?xml version="1.0" standalone="no"?><!DOCTYPE svg PUBLIC "-//W3C//DTD SVG 1.1//EN" "http://www.w3.org/Graphics/SVG/1.1/DTD/svg11.dtd"><svg t="1623310682870" class="icon" viewBox="0 0 1024 1024" version="1.1" xmlns="http://www.w3.org/2000/svg" p-id="4773" xmlns:xlink="http://www.w3.org/1999/xlink" width="200" height="200"><defs><style type="text/css">@font-face { font-family: element-icons; src: url("chrome-extension://moombeodfomdpjnpocobemoiaemednkg/fonts/element-icons.woff") format("woff"), url("chrome-extension://moombeodfomdpjnpocobemoiaemednkg/fonts/element-icons.ttf ") format("truetype"); }
</style></defs><path d="M512 25.6C243.712 25.6 25.6 243.712 25.6 512s218.112 486.4 486.4 486.4 486.4-218.112 486.4-486.4-218.112-486.4-486.4-486.4z m0 896c-225.792 0-409.6-183.808-409.6-409.6s183.808-409.6 409.6-409.6 409.6 183.808 409.6 409.6-183.808 409.6-409.6 409.6z" p-id="4774"></path><path d="M724.48 473.6h-175.104V298.496c0-20.992-17.408-38.4-38.4-38.4s-38.4 17.408-38.4 38.4v175.104H296.96c-20.992 0-38.4 17.408-38.4 38.4s17.408 38.4 38.4 38.4h175.104v175.104c0 20.992 17.408 38.4 38.4 38.4s38.4-17.408 38.4-38.4v-175.104h175.104c20.992 0 38.4-17.408 38.4-38.4 0.512-20.992-16.896-38.4-37.888-38.4z" p-id="4775"></path></svg>