<?xml version="1.0" standalone="no"?><!DOCTYPE svg PUBLIC "-//W3C//DTD SVG 1.1//EN" "http://www.w3.org/Graphics/SVG/1.1/DTD/svg11.dtd"><svg t="1622006738294" class="icon" viewBox="0 0 1024 1024" version="1.1" xmlns="http://www.w3.org/2000/svg" p-id="10792" xmlns:xlink="http://www.w3.org/1999/xlink" width="200" height="200"><defs><style type="text/css">@font-face { font-family: element-icons; src: url("chrome-extension://moombeodfomdpjnpocobemoiaemednkg/fonts/element-icons.woff") format("woff"), url("chrome-extension://moombeodfomdpjnpocobemoiaemednkg/fonts/element-icons.ttf ") format("truetype"); }
</style></defs><path d="M890.8 1012.9h-0.2l-450.8-3.3c-9.9-0.1-19.3-4.7-25.4-12.6-6.1-7.9-8.3-18.1-5.9-27.8l33.7-136.7c-6.2 1-12.5 1.4-18.8 1.4-32.5 0-62.9-12.6-85.7-35.5-47.3-47.4-47.3-124.5 0-171.9l99.8-100c12.7-12.7 33.2-12.7 45.9 0 12.7 12.7 12.7 33.3 0 46l-99.8 100c-22 22-22 57.9 0 79.9 22 22 57.7 22 79.7 0 8.6-8.6 21.2-11.7 32.7-8 11.6 3.7 20.1 13.5 22.2 25.5l1.5 8.4c0.8 4.4 0.6 9-0.5 13.3l-37.7 153.2 368.1 2.7-40.1-165.3c-0.3-1.1-0.5-2.3-0.6-3.5l-1-8c-1.8-13.8 5.4-27.2 17.8-33.4 12.5-6.2 27.5-3.7 37.3 6.2 10.6 10.6 24.7 16.4 39.9 16.4s29.3-5.8 39.9-16.4c10.6-10.6 16.4-24.8 16.4-39.9 0-15.1-5.8-29.2-16.2-39.7L852.8 577c-12.9-12.4-13.3-33-0.9-46 12.4-12.9 33-13.4 45.9-0.9l90.4 87.1c0.2 0.1 0.3 0.3 0.5 0.4 47.3 47.4 47.3 124.5 0 171.9-27.8 27.9-65.9 39.3-102.1 34.4l36.1 148.7c2.4 9.7 0.1 20-6.1 27.9-6.5 7.8-15.9 12.4-25.8 12.4zM149 581.4c-8.1 0-16.2-3-22.5-9.1-28.2-27.2-50.4-59.2-65.9-95-16.1-37.1-24.3-76.6-24.3-117.4 0-78.7 30.6-152.7 86.1-208.4C178 95.9 251.8 65.2 330.3 65.2c17.9 0 32.4 14.6 32.4 32.5 0 18-14.5 32.5-32.4 32.5-126.3 0-229.1 103-229.1 229.6 0 63 25 121.8 70.3 165.5 12.9 12.5 13.3 33 0.9 46-6.4 6.8-14.9 10.1-23.4 10.1z" p-id="10793"></path><path d="M238.8 977.9H132.2c-0.6 0-1.3 0-1.9-0.1l-1.9-0.1c-9.6-0.6-18.5-5.4-24.2-13.2s-7.7-17.7-5.4-27.1l29.5-119.6c-4.3 0.5-8.7 0.7-13 0.7-30.2 0-58.6-11.7-79.8-33.1-44-44.1-44-115.9 0-160.1l90.4-90.6c12.7-12.7 33.2-12.7 45.9 0 12.7 12.7 12.7 33.3 0 46l-90.4 90.6c-18.7 18.8-18.7 49.3 0 68.1 9 9 21.1 14 34 14s25-5 34-14c8.6-8.6 21.2-11.7 32.8-8 11.6 3.7 20.1 13.5 22.2 25.5l1.3 7.6c0.8 4.4 0.6 9-0.5 13.3L172 912.6h67.1c17.9 0 32.4 14.6 32.4 32.5-0.3 18.2-14.8 32.8-32.7 32.8zM663 651.8c-85 0-165-33.2-225.1-93.5-60.1-60.3-93.3-140.4-93.3-225.7s33.1-165.4 93.3-225.7S578 13.5 663 13.5 828 46.7 888.1 107c60.1 60.3 93.3 140.4 93.3 225.7 0 85.2-33.1 165.4-93.3 225.7C828 618.6 748 651.8 663 651.8z m0-573.3c-139.8 0-253.5 114-253.5 254.1S523.2 586.7 663 586.7s253.5-114 253.5-254.1S802.8 78.5 663 78.5z" p-id="10794"></path></svg>