<?xml version="1.0" standalone="no"?><!DOCTYPE svg PUBLIC "-//W3C//DTD SVG 1.1//EN" "http://www.w3.org/Graphics/SVG/1.1/DTD/svg11.dtd"><svg t="1622006767422" class="icon" viewBox="0 0 1024 1024" version="1.1" xmlns="http://www.w3.org/2000/svg" p-id="11581" xmlns:xlink="http://www.w3.org/1999/xlink" width="200" height="200"><defs><style type="text/css">@font-face { font-family: element-icons; src: url("chrome-extension://moombeodfomdpjnpocobemoiaemednkg/fonts/element-icons.woff") format("woff"), url("chrome-extension://moombeodfomdpjnpocobemoiaemednkg/fonts/element-icons.ttf ") format("truetype"); }
</style></defs><path d="M537.402426 0c339.828004 0 356.762955 330.231533 356.762955 330.231533 51.36935 69.433297 23.708931 131.528115 23.708931 131.528115 165.962514 264.749724 58.707828 341.521499 29.353914 347.166483-29.353914 5.644983-57.014333-32.740904-57.014333-32.740904s-9.596472 38.385888-33.305402 58.14333c86.368247 41.208379 71.126792 92.01323 71.126792 92.01323s-18.063947 154.108049-377.649394 56.449835l-30.482911-5.644983c-344.343991 126.44763-387.245865-44.030871-387.245865-44.030871s-14.112459-70.562293 53.062845-97.658214c-38.950386-24.273429-53.062845-75.07828-53.062845-75.07828S97.093716 818.522602 50.804851 797.636163c-45.724366-21.450937-73.949283-209.428886 98.787211-345.472988 0 0-24.837927-80.723264 32.176406-128.705623C181.768467 322.893054 197.009923 0 537.402426 0L537.402426 0z" p-id="11582"></path></svg>