<?xml version="1.0" standalone="no"?><!DOCTYPE svg PUBLIC "-//W3C//DTD SVG 1.1//EN" "http://www.w3.org/Graphics/SVG/1.1/DTD/svg11.dtd"><svg t="1623161708891" class="icon" viewBox="0 0 1024 1024" version="1.1" xmlns="http://www.w3.org/2000/svg" p-id="1225" xmlns:xlink="http://www.w3.org/1999/xlink" width="200" height="200"><defs><style type="text/css"></style></defs><path d="M1015.604544 509.189473c0-279.997855-227.797192-507.802272-507.802272-507.802272C227.804417 1.387201 0 229.184393 0 509.189473c0 252.196035 184.830085 461.952388 426.123587 501.148042a352.746433 352.746433 0 0 0 81.678685 9.638157c28.119721 0 55.444691-3.402977 81.678685-9.638157 241.293502-39.202879 426.123587-248.959232 426.123587-501.148042z m-928.90448 0c0-232.19722 188.904988-421.102208 421.102208-421.102208s421.102208 188.904988 421.102208 421.102208c0 91.230142-29.254046 175.704904-78.752557 244.739829a352.753658 352.753658 0 0 0 10.924208-87.241939V509.189473a43.350032 43.350032 0 0 0-43.350032-43.350032H197.87122a43.350032 43.350032 0 0 0-43.350032 43.350032v157.49789c0 30.099372 3.807578 59.324518 10.924208 87.234714-49.491286-69.034926-78.745333-153.509687-78.745332-244.732604z m421.094983 421.102208c-21.833966 0-43.277782-1.676201-64.223072-4.891328-116.062485-28.820546-202.350723-133.857673-202.350723-258.71299V552.539505h533.154815v114.147858c0 124.855316-86.288238 229.892443-202.350723 258.71299a423.13966 423.13966 0 0 1-64.230297 4.891328z" p-id="1226"></path><path d="M445.414351 425.401087a43.350032 43.350032 0 0 1-43.350032-43.350032c0-43.899132-35.713201-79.612333-79.619558-79.612333-43.899132 0-79.612333 35.713201-79.612333 79.612333a43.350032 43.350032 0 0 1-86.700064 0c0-91.706992 74.605405-166.312397 166.312397-166.312397 91.706992 0 166.319622 74.605405 166.319622 166.312397a43.350032 43.350032 0 0 1-43.350032 43.350032zM814.503747 425.401087a43.350032 43.350032 0 0 1-43.350032-43.350032c0-43.899132-35.713201-79.612333-79.619559-79.612333-43.891907 0-79.612333 35.713201-79.612333 79.612333a43.350032 43.350032 0 0 1-86.700063 0c0-91.706992 74.605405-166.312397 166.312396-166.312397 91.706992 0 166.319622 74.605405 166.319622 166.312397a43.350032 43.350032 0 0 1-43.350031 43.350032z" p-id="1227"></path></svg>
