<?xml version="1.0" standalone="no"?><!DOCTYPE svg PUBLIC "-//W3C//DTD SVG 1.1//EN" "http://www.w3.org/Graphics/SVG/1.1/DTD/svg11.dtd"><svg t="1621836060898" class="icon" viewBox="0 0 1024 1024" version="1.1" xmlns="http://www.w3.org/2000/svg" p-id="3914" xmlns:xlink="http://www.w3.org/1999/xlink" width="200" height="200"><defs><style type="text/css">@font-face { font-family: element-icons; src: url("chrome-extension://moombeodfomdpjnpocobemoiaemednkg/fonts/element-icons.woff") format("woff"), url("chrome-extension://moombeodfomdpjnpocobemoiaemednkg/fonts/element-icons.ttf ") format("truetype"); }
</style></defs><path d="M512.23624999 281.9196875a151.093125 151.093125 0 1 0 0 302.1871875 151.093125 151.093125 0 0 0 0-302.1871875z m0 362.6671875c-162.826875 0-256.0003125 56.8528125-270.18749998 164.26687499a392.9596875 392.9596875 0 0 0 540.26718749 0C768.2375 701.4396875 675.063125 644.586875 512.23624999 644.586875z m0 332.42625a453.33375001 453.33375001 0 0 1-323.73374999-770.773125A450.613125 450.613125 0 0 1 502.7965625 70.3465625h9.43968751a453.33375001 453.33375001 0 0 1 323.62687499 770.773125 450.6665625 450.6665625 0 0 1-314.13375 135.8934375h-9.49312501z" p-id="3915"></path></svg>